<?xml version="1.0" encoding="utf-8"?>
<!-- Generator: Adobe Illustrator 27.6.1, SVG Export Plug-In . SVG Version: 6.00 Build 0)  -->
<svg version="1.1" id="Layer_1" xmlns="http://www.w3.org/2000/svg" xmlns:xlink="http://www.w3.org/1999/xlink" x="0px" y="0px"
	 viewBox="0 0 3773.65 512.41" style="enable-background:new 0 0 3773.65 512.41;" xml:space="preserve">
<style type="text/css">
	.st0{fill:#424143;}
</style>
<polygon class="st0" points="1.6,512.41 1.6,311.28 97.37,311.28 97.37,170.8 226.67,170.8 226.67,258.6 304.89,258.6 
	304.89,290.53 351.19,290.53 351.19,260.2 405.46,260.2 405.46,196.35 448.56,142.07 523.59,142.07 558.71,199.54 558.71,400.67 
	664.06,400.67 664.06,260.2 849.23,260.2 849.23,298.51 900.31,298.51 900.31,263.39 1036,263.39 1036,293.72 1098.26,293.72 
	1098.26,258.6 1114.22,258.6 1114.22,108.55 1142.95,108.55 1142.95,87.8 1168.49,65.45 1229.15,65.45 1249.9,87.8 1249.9,106.95 
	1273.85,106.95 1273.85,260.2 1288.21,260.2 1288.21,333.63 1324.93,333.63 1324.93,188.36 1443.06,188.36 1443.06,276.16 
	1463.81,276.16 1463.81,205.92 1484.56,205.92 1484.56,156.44 1535.64,156.44 1535.64,204.33 1565.97,204.33 1565.97,242.64 
	1613.86,242.64 1613.86,271.37 1739.97,271.37 1739.97,178.79 1821.38,178.79 1821.38,212.31 1861.29,212.31 1861.29,174 
	1974.62,174 1974.62,129.3 2051.25,129.3 2051.25,162.82 2089.56,162.82 2089.56,410.25 2119.89,410.25 2119.89,175.59 
	2301.87,175.59 2301.87,269.77 2397.64,269.77 2397.64,408.65 2439.15,408.65 2439.15,308.09 2491.83,308.09 2491.83,258.6 
	2550.89,258.6 2550.89,309.68 2633.9,309.68 2633.9,258.6 2648.26,258.6 2648.26,177.19 2689.77,111.74 2728.08,172.4 
	2728.08,317.66 2803.1,317.66 2803.1,177.19 2970.72,177.19 2970.72,335.22 3010.62,335.22 3010.62,118 3128.75,118 3128.75,70.24 
	3254.86,70.24 3254.86,154.84 3406.51,154.84 3406.51,247.43 3455.99,247.43 3455.99,143.67 3519.84,143.67 3519.84,0 3700.23,0 
	3700.23,301.7 3773.65,301.7 3773.65,512.41 0,512.41 "/>
</svg>
